G04 #@! TF.GenerationSoftware,KiCad,Pcbnew,(5.1.4)-1*
G04 #@! TF.CreationDate,2023-05-19T09:13:52-04:00*
G04 #@! TF.ProjectId,ThumbsUp,5468756d-6273-4557-902e-6b696361645f,rev?*
G04 #@! TF.SameCoordinates,Original*
G04 #@! TF.FileFunction,Copper,L1,Top*
G04 #@! TF.FilePolarity,Positive*
%FSLAX46Y46*%
G04 Gerber Fmt 4.6, Leading zero omitted, Abs format (unit mm)*
G04 Created by KiCad (PCBNEW (5.1.4)-1) date 2023-05-19 09:13:52*
%MOMM*%
%LPD*%
G04 APERTURE LIST*
%ADD10C,1.575000*%
%ADD11O,1.700000X1.700000*%
%ADD12R,1.700000X1.700000*%
%ADD13C,2.250000*%
%ADD14C,2.250000*%
%ADD15O,0.900000X1.700000*%
%ADD16O,0.900000X2.000000*%
%ADD17C,1.700000*%
%ADD18C,1.700000*%
%ADD19C,0.100000*%
%ADD20C,0.800000*%
%ADD21C,3.000000*%
%ADD22C,0.200000*%
%ADD23C,0.500000*%
G04 APERTURE END LIST*
D10*
X85447277Y-456655373D03*
X87998928Y-459674326D03*
X86826658Y-464018953D03*
X81723356Y-457981047D03*
X80551086Y-462325674D03*
X75669532Y-454055373D03*
X78221183Y-457074326D03*
X77048913Y-461418953D03*
X71945611Y-455381047D03*
X70773341Y-459725674D03*
D11*
X97510000Y-370820000D03*
X100050000Y-370820000D03*
X102590000Y-370820000D03*
D12*
X105130000Y-370820000D03*
D13*
X99532789Y-415512952D03*
X98877790Y-416242952D03*
D14*
X98222789Y-416972952D02*
X99532791Y-415512952D01*
D13*
X104572789Y-414432952D03*
X104552789Y-414722952D03*
D14*
X104532789Y-415012952D02*
X104572789Y-414432952D01*
D13*
X118582790Y-374420000D03*
X117927791Y-375150000D03*
D14*
X117272790Y-375880000D02*
X118582792Y-374420000D01*
D13*
X123622790Y-373340000D03*
X123602790Y-373630000D03*
D14*
X123582790Y-373920000D02*
X123622790Y-373340000D01*
D13*
X99532790Y-377400000D03*
X98877791Y-378130000D03*
D14*
X98222790Y-378860000D02*
X99532792Y-377400000D01*
D13*
X104572790Y-376320000D03*
X104552790Y-376610000D03*
D14*
X104532790Y-376900000D02*
X104572790Y-376320000D01*
D13*
X118582789Y-431562952D03*
X117927790Y-432292952D03*
D14*
X117272789Y-433022952D02*
X118582791Y-431562952D01*
D13*
X123622789Y-430482952D03*
X123602789Y-430772952D03*
D14*
X123582789Y-431062952D02*
X123622789Y-430482952D01*
D13*
X123582789Y-420512952D03*
X124237788Y-419782952D03*
D14*
X124892789Y-419052952D02*
X123582787Y-420512952D01*
D13*
X118542789Y-421592952D03*
X118562789Y-421302952D03*
D14*
X118582789Y-421012952D02*
X118542789Y-421592952D01*
D13*
X123602790Y-392672952D03*
D14*
X123582790Y-392962952D02*
X123622790Y-392382952D01*
D13*
X123622790Y-392382952D03*
X117927791Y-394192952D03*
D14*
X117272790Y-394922952D02*
X118582792Y-393462952D01*
D13*
X118582790Y-393462952D03*
X99532790Y-434562952D03*
X98877791Y-435292952D03*
D14*
X98222790Y-436022952D02*
X99532792Y-434562952D01*
D13*
X104572790Y-433482952D03*
X104552790Y-433772952D03*
D14*
X104532790Y-434062952D02*
X104572790Y-433482952D01*
D13*
X104552790Y-395672952D03*
D14*
X104532790Y-395962952D02*
X104572790Y-395382952D01*
D13*
X104572790Y-395382952D03*
X98877791Y-397192952D03*
D14*
X98222790Y-397922952D02*
X99532792Y-396462952D01*
D13*
X99532790Y-396462952D03*
X85482789Y-451062953D03*
X86137788Y-450332953D03*
D14*
X86792789Y-449602953D02*
X85482787Y-451062953D01*
D13*
X80442789Y-452142953D03*
X80462789Y-451852953D03*
D14*
X80482789Y-451562953D02*
X80442789Y-452142953D01*
D13*
X66432789Y-456062952D03*
X67087788Y-455332952D03*
D14*
X67742789Y-454602952D02*
X66432787Y-456062952D01*
D13*
X61392789Y-457142952D03*
X61412789Y-456852952D03*
D14*
X61432789Y-456562952D02*
X61392789Y-457142952D01*
D15*
X116300000Y-369925000D03*
X107660000Y-369925000D03*
D16*
X116300000Y-374095000D03*
X107660000Y-374095000D03*
D17*
X101993144Y-468685154D03*
D18*
X101993144Y-468685154D02*
X101993144Y-468685154D01*
D17*
X99539692Y-468027754D03*
D18*
X99539692Y-468027754D02*
X99539692Y-468027754D01*
D17*
X97086241Y-467370353D03*
D18*
X97086241Y-467370353D02*
X97086241Y-467370353D01*
D17*
X94632789Y-466712953D03*
D19*
G36*
X95233830Y-467753986D02*
G01*
X93591756Y-467313994D01*
X94031748Y-465671920D01*
X95673822Y-466111912D01*
X95233830Y-467753986D01*
X95233830Y-467753986D01*
G37*
D20*
X117800000Y-388725000D03*
X124800000Y-388725000D03*
D13*
X124000000Y-386200000D03*
D21*
X116600000Y-391125000D03*
D13*
X125900000Y-391250000D03*
D11*
X128876095Y-372098305D03*
X128876095Y-374638305D03*
X128876095Y-377178305D03*
D12*
X128876095Y-379718305D03*
D11*
X128940599Y-422224893D03*
X128940599Y-424764893D03*
X128940599Y-427304893D03*
D12*
X128940599Y-429844893D03*
D11*
X128068428Y-451181322D03*
X125528428Y-451181322D03*
X122988428Y-451181322D03*
D12*
X120448428Y-451181322D03*
D17*
X89627956Y-465271820D03*
D18*
X89627956Y-465271820D02*
X89627956Y-465271820D01*
D17*
X90285356Y-462818368D03*
D18*
X90285356Y-462818368D02*
X90285356Y-462818368D01*
D17*
X90942757Y-460364917D03*
D18*
X90942757Y-460364917D02*
X90942757Y-460364917D01*
D17*
X91600157Y-457911465D03*
D19*
G36*
X90559124Y-458512506D02*
G01*
X90999116Y-456870432D01*
X92641190Y-457310424D01*
X92201198Y-458952498D01*
X90559124Y-458512506D01*
X90559124Y-458512506D01*
G37*
D11*
X56532789Y-458812952D03*
X56532789Y-456272952D03*
X56532789Y-453732952D03*
D12*
X56532789Y-451192952D03*
D11*
X98376974Y-429020972D03*
X100916974Y-429020972D03*
X103456974Y-429020972D03*
D12*
X105996974Y-429020972D03*
D11*
X98509278Y-390818375D03*
X101049278Y-390818375D03*
X103589278Y-390818375D03*
D12*
X106129278Y-390818375D03*
D11*
X98534161Y-409935202D03*
X101074161Y-409935202D03*
X103614161Y-409935202D03*
D12*
X106154161Y-409935202D03*
D17*
X118693145Y-473085153D03*
D18*
X118693145Y-473085153D02*
X118693145Y-473085153D01*
D17*
X116239693Y-472427753D03*
D18*
X116239693Y-472427753D02*
X116239693Y-472427753D01*
D17*
X113786242Y-471770352D03*
D18*
X113786242Y-471770352D02*
X113786242Y-471770352D01*
D17*
X111332790Y-471112952D03*
D19*
G36*
X110731749Y-470071919D02*
G01*
X112373823Y-470511911D01*
X111933831Y-472153985D01*
X110291757Y-471713993D01*
X110731749Y-470071919D01*
X110731749Y-470071919D01*
G37*
D17*
X127932789Y-471912952D03*
D18*
X127932789Y-471912952D02*
X127932789Y-471912952D01*
D17*
X128590189Y-469459500D03*
D18*
X128590189Y-469459500D02*
X128590189Y-469459500D01*
D17*
X129247590Y-467006049D03*
D18*
X129247590Y-467006049D02*
X129247590Y-467006049D01*
D17*
X129904990Y-464552597D03*
D19*
G36*
X128863957Y-465153638D02*
G01*
X129303949Y-463511564D01*
X130946023Y-463951556D01*
X130506031Y-465593630D01*
X128863957Y-465153638D01*
X128863957Y-465153638D01*
G37*
D20*
X110975000Y-376725000D03*
X112062065Y-445485431D03*
X112075000Y-376875000D03*
X112360037Y-446363248D03*
X107787880Y-464802836D03*
X120300000Y-465325002D03*
X107620979Y-461501191D03*
X107966595Y-463325603D03*
X109350000Y-450950000D03*
X107146000Y-463880000D03*
X108276702Y-450945568D03*
X104163969Y-465000283D03*
X96490000Y-463070000D03*
X98030000Y-463070000D03*
X104040000Y-455960000D03*
X114900000Y-463100000D03*
X104036356Y-451656032D03*
X113500000Y-453550002D03*
X118875000Y-457025000D03*
X115455864Y-469344136D03*
X121399988Y-462100000D03*
X120125365Y-464045989D03*
X67742789Y-459332211D03*
X105930000Y-448280000D03*
X108508655Y-468645979D03*
X108000000Y-470400000D03*
X123250000Y-471850000D03*
X121950145Y-448655167D03*
X121947694Y-447728169D03*
X121964373Y-446801317D03*
X122000000Y-445875000D03*
X104500000Y-448199964D03*
X103519894Y-448199964D03*
X102466731Y-448199964D03*
X101422667Y-448199964D03*
X112475000Y-405650000D03*
X113050960Y-444197171D03*
X110450000Y-448725000D03*
X113370109Y-443299718D03*
X114078676Y-442527828D03*
X105083989Y-464130749D03*
X109624021Y-457092000D03*
X107908000Y-467182000D03*
X118068356Y-463081644D03*
X99800000Y-463835000D03*
X113500000Y-455125000D03*
X120350000Y-467450000D03*
X115503153Y-468225008D03*
X107300000Y-449770000D03*
X118333617Y-464859428D03*
X120625000Y-472200000D03*
X120625008Y-471175008D03*
X120708320Y-469613376D03*
X120802344Y-468691144D03*
X121679012Y-465173740D03*
X124776999Y-470875000D03*
D22*
X111762066Y-445185432D02*
X112062065Y-445485431D01*
X112970110Y-432945483D02*
X112970110Y-441277151D01*
X111762066Y-442485195D02*
X111762066Y-445185432D01*
X110975000Y-376725000D02*
X110975000Y-418680385D01*
X110975000Y-418680385D02*
X111762066Y-419467451D01*
X111762066Y-419467451D02*
X111762066Y-431737439D01*
X112970110Y-441277151D02*
X111762066Y-442485195D01*
X111762066Y-431737439D02*
X112970110Y-432945483D01*
X112689067Y-446034218D02*
X112360037Y-446363248D01*
X112075000Y-376875000D02*
X111489077Y-377460923D01*
X111489077Y-377460923D02*
X111489077Y-418731999D01*
X111489077Y-418731999D02*
X112089077Y-419331999D01*
X112089077Y-419331999D02*
X112089077Y-431601987D01*
X112089077Y-431601987D02*
X113297121Y-432810031D01*
X113297121Y-432810031D02*
X113297121Y-441412603D01*
X113297121Y-441412603D02*
X112089077Y-442620647D01*
X112089077Y-442620647D02*
X112089077Y-444584479D01*
X112689067Y-445184469D02*
X112689067Y-446034218D01*
X112089077Y-444584479D02*
X112689067Y-445184469D01*
D23*
X119875003Y-465749999D02*
X120300000Y-465325002D01*
X107787880Y-464802836D02*
X108735043Y-465749999D01*
X108735043Y-465749999D02*
X119875003Y-465749999D01*
X105860999Y-463261171D02*
X107620979Y-461501191D01*
X106410874Y-464802836D02*
X105860999Y-464252961D01*
X105860999Y-464252961D02*
X105860999Y-463261171D01*
X107787880Y-464802836D02*
X106410874Y-464802836D01*
D22*
X109350000Y-451515685D02*
X109350000Y-450950000D01*
X107966595Y-463325603D02*
X108575000Y-462717198D01*
X108575000Y-462717198D02*
X108575000Y-452290685D01*
X108575000Y-452290685D02*
X109350000Y-451515685D01*
X108247989Y-450974281D02*
X108276702Y-450945568D01*
X108247989Y-462141170D02*
X108247989Y-450974281D01*
X107146000Y-463880000D02*
X107146000Y-463243159D01*
X107146000Y-463243159D02*
X108247989Y-462141170D01*
D23*
X98030000Y-463070000D02*
X96490000Y-463070000D01*
X98890000Y-455960000D02*
X98030000Y-456820000D01*
X104040000Y-455960000D02*
X98890000Y-455960000D01*
X98030000Y-456820000D02*
X98030000Y-463070000D01*
X113500000Y-453550002D02*
X116974998Y-457025000D01*
X116974998Y-457025000D02*
X118875000Y-457025000D01*
X120800000Y-458950000D02*
X120900000Y-459050000D01*
X120900000Y-459050000D02*
X118875000Y-457025000D01*
X120900000Y-459050000D02*
X121399988Y-459549988D01*
X121399988Y-459549988D02*
X121399988Y-462100000D01*
X115845989Y-464045989D02*
X120125365Y-464045989D01*
X121399988Y-462771366D02*
X120125365Y-464045989D01*
X114900000Y-463100000D02*
X115845989Y-464045989D01*
X121399988Y-462100000D02*
X121399988Y-462771366D01*
X120900000Y-459400000D02*
X120900000Y-459050000D01*
X67742789Y-454602952D02*
X67742789Y-459332211D01*
X108795683Y-448280000D02*
X105930000Y-448280000D01*
X113500000Y-452984317D02*
X108795683Y-448280000D01*
X113500000Y-453550002D02*
X113500000Y-452984317D01*
X105930000Y-448719962D02*
X105930000Y-448280000D01*
X104040000Y-455960000D02*
X104040000Y-450609962D01*
X104040000Y-450609962D02*
X105930000Y-448719962D01*
X86792789Y-449752953D02*
X86792789Y-449602953D01*
X86739836Y-449700000D02*
X86792789Y-449752953D01*
X70300000Y-454100000D02*
X74700000Y-449700000D01*
X67742789Y-454602952D02*
X68245741Y-454100000D01*
X68245741Y-454100000D02*
X70300000Y-454100000D01*
X78221183Y-449821183D02*
X78100000Y-449700000D01*
X78221183Y-457074326D02*
X78221183Y-449821183D01*
X74700000Y-449700000D02*
X78100000Y-449700000D01*
X78100000Y-449700000D02*
X86739836Y-449700000D01*
X104163969Y-465000283D02*
X107809665Y-468645979D01*
X107942970Y-468645979D02*
X108508655Y-468645979D01*
X107809665Y-468645979D02*
X107942970Y-468645979D01*
X109074340Y-468645979D02*
X108508655Y-468645979D01*
X114757707Y-468645979D02*
X109074340Y-468645979D01*
X115455864Y-469344136D02*
X114757707Y-468645979D01*
X98030000Y-463635685D02*
X98030000Y-463070000D01*
X99394598Y-465000283D02*
X98030000Y-463635685D01*
X104163969Y-465000283D02*
X99394598Y-465000283D01*
X107403406Y-470400000D02*
X108000000Y-470400000D01*
X103146758Y-466143352D02*
X107403406Y-470400000D01*
X95356648Y-466143352D02*
X103146758Y-466143352D01*
X94632789Y-466712953D02*
X94787047Y-466712953D01*
X94787047Y-466712953D02*
X95356648Y-466143352D01*
D22*
X123947989Y-469852011D02*
X123250000Y-470550000D01*
X113016078Y-447578764D02*
X123947989Y-458510675D01*
X113016078Y-445049017D02*
X113016078Y-447578764D01*
X112416088Y-444449027D02*
X113016078Y-445049017D01*
X123947989Y-458510675D02*
X123947989Y-469852011D01*
X112416088Y-442756099D02*
X112416088Y-444449027D01*
X113624132Y-441548055D02*
X112416088Y-442756099D01*
X111816088Y-395908912D02*
X111816088Y-418596547D01*
X116600000Y-391125000D02*
X111816088Y-395908912D01*
X111816088Y-418596547D02*
X112416088Y-419196547D01*
X112416088Y-419196547D02*
X112416088Y-431466535D01*
X112416088Y-431466535D02*
X113624132Y-432674579D01*
X123250000Y-470550000D02*
X123250000Y-471850000D01*
X113624132Y-432674579D02*
X113624132Y-441548055D01*
X128700000Y-430085492D02*
X128940599Y-429844893D01*
X121950145Y-448655167D02*
X122144833Y-448655167D01*
X122144833Y-448655167D02*
X128700000Y-442100000D01*
X128700000Y-442100000D02*
X128700000Y-430085492D01*
X121947694Y-447728169D02*
X128372989Y-441302874D01*
X127554022Y-428691470D02*
X128090600Y-428154892D01*
X128372989Y-432023065D02*
X127554022Y-431204098D01*
X128372989Y-441302874D02*
X128372989Y-432023065D01*
X127554022Y-431204098D02*
X127554022Y-428691470D01*
X128090600Y-428154892D02*
X128940599Y-427304893D01*
X128090600Y-425614892D02*
X128940599Y-424764893D01*
X127227011Y-431339550D02*
X127227011Y-426478481D01*
X121964373Y-446801317D02*
X128045978Y-440719712D01*
X128045978Y-440719712D02*
X128045978Y-432158517D01*
X128045978Y-432158517D02*
X127227011Y-431339550D01*
X127227011Y-426478481D02*
X128090600Y-425614892D01*
X127718967Y-432293969D02*
X126900000Y-431475002D01*
X126900000Y-424265492D02*
X128090600Y-423074892D01*
X127718967Y-440156033D02*
X127718967Y-432293969D01*
X128090600Y-423074892D02*
X128940599Y-422224893D01*
X126900000Y-431475002D02*
X126900000Y-424265492D01*
X122000000Y-445875000D02*
X127718967Y-440156033D01*
X105879028Y-429020972D02*
X105996974Y-429020972D01*
X105996974Y-429209585D02*
X105996974Y-429020972D01*
X104500000Y-446510020D02*
X110681033Y-440328987D01*
X104500000Y-448199964D02*
X104500000Y-446510020D01*
X110681033Y-433893644D02*
X105996974Y-429209585D01*
X110681033Y-440328987D02*
X110681033Y-433893644D01*
X105081980Y-430645978D02*
X103456974Y-429020972D01*
X106970904Y-430645978D02*
X105081980Y-430645978D01*
X110354022Y-434029096D02*
X106970904Y-430645978D01*
X110354022Y-440193535D02*
X110354022Y-434029096D01*
X103519894Y-448199964D02*
X103519894Y-447027663D01*
X103519894Y-447027663D02*
X110354022Y-440193535D01*
X102868991Y-430972989D02*
X100916974Y-429020972D01*
X102466731Y-447618363D02*
X110027011Y-440058083D01*
X102466731Y-448199964D02*
X102466731Y-447618363D01*
X110027011Y-440058083D02*
X110027011Y-434164548D01*
X110027011Y-434164548D02*
X106835452Y-430972989D01*
X106835452Y-430972989D02*
X102868991Y-430972989D01*
X100656002Y-431300000D02*
X98376974Y-429020972D01*
X109700000Y-439922631D02*
X109700000Y-434300000D01*
X109700000Y-434300000D02*
X106700000Y-431300000D01*
X101422667Y-448199964D02*
X109700000Y-439922631D01*
X106700000Y-431300000D02*
X100656002Y-431300000D01*
X105152790Y-395962952D02*
X104532790Y-395962952D01*
X112743099Y-443889310D02*
X113050960Y-444197171D01*
X113652394Y-442068018D02*
X113395123Y-442239529D01*
X113951143Y-432539127D02*
X113951143Y-441769269D01*
X113395123Y-442239529D02*
X112743099Y-442891551D01*
X112743099Y-431331083D02*
X113951143Y-432539127D01*
X112475000Y-405650000D02*
X112475000Y-418792996D01*
X112475000Y-418792996D02*
X112743099Y-419061095D01*
X112743099Y-442891551D02*
X112743099Y-443889310D01*
X113951143Y-441769269D02*
X113652394Y-442068018D01*
X112743099Y-419061095D02*
X112743099Y-431331083D01*
X111008044Y-433758192D02*
X111008044Y-440464439D01*
X109800000Y-432550149D02*
X111008044Y-433758192D01*
X109800000Y-448075000D02*
X110450000Y-448725000D01*
X104532789Y-415012952D02*
X109800000Y-420280163D01*
X111008044Y-440464439D02*
X109800000Y-441672483D01*
X109800000Y-420280163D02*
X109800000Y-432550149D01*
X109800000Y-441672483D02*
X109800000Y-448075000D01*
X114705677Y-432544323D02*
X114705677Y-442828789D01*
X114705677Y-442828789D02*
X114234748Y-443299718D01*
X127922989Y-419327011D02*
X114705677Y-432544323D01*
X127922989Y-396683151D02*
X127922989Y-419327011D01*
X114234748Y-443299718D02*
X113370109Y-443299718D01*
X123622790Y-392382952D02*
X127922989Y-396683151D01*
X114278154Y-442328350D02*
X114078676Y-442527828D01*
X118542789Y-421592952D02*
X114278154Y-425857587D01*
X114278154Y-425857587D02*
X114278154Y-442328350D01*
D23*
X104788240Y-463835000D02*
X105083989Y-464130749D01*
X99800000Y-463835000D02*
X104788240Y-463835000D01*
X107342315Y-467182000D02*
X105083989Y-464923674D01*
X107908000Y-467182000D02*
X107342315Y-467182000D01*
X105083989Y-464923674D02*
X105083989Y-464130749D01*
X118068356Y-459693356D02*
X113500000Y-455125000D01*
X118068356Y-463081644D02*
X118068356Y-459693356D01*
X109624021Y-456848979D02*
X112424000Y-454049000D01*
X109624021Y-457092000D02*
X109624021Y-456848979D01*
X113500000Y-455125000D02*
X112424000Y-454049000D01*
X120350000Y-467450000D02*
X116278161Y-467450000D01*
X114460145Y-467182000D02*
X115503153Y-468225008D01*
X116278161Y-467450000D02*
X115503153Y-468225008D01*
X107908000Y-467182000D02*
X114460145Y-467182000D01*
X109369964Y-449770000D02*
X107300000Y-449770000D01*
X112424000Y-452824036D02*
X109369964Y-449770000D01*
X105083989Y-451986011D02*
X107300000Y-449770000D01*
X105083989Y-464130749D02*
X105083989Y-451986011D01*
X112424000Y-454049000D02*
X112424000Y-452824036D01*
D22*
X86826658Y-464018953D02*
X86351651Y-464018953D01*
X86351651Y-464018953D02*
X86251651Y-463918953D01*
X89400000Y-461445611D02*
X86826658Y-464018953D01*
X89400000Y-457000000D02*
X89400000Y-461445611D01*
X90394000Y-456006000D02*
X89400000Y-457000000D01*
X93176000Y-456006000D02*
X90394000Y-456006000D01*
X94192000Y-457022000D02*
X93176000Y-456006000D01*
X94192000Y-461992000D02*
X94192000Y-457022000D01*
X121052002Y-467700962D02*
X120675962Y-468077002D01*
X121052002Y-465099040D02*
X121052002Y-467700962D01*
X120625961Y-464672999D02*
X121052002Y-465099040D01*
X119085731Y-464672999D02*
X120625961Y-464672999D01*
X118333617Y-464859428D02*
X118899302Y-464859428D01*
X120074038Y-468077002D02*
X118124039Y-470027001D01*
X118899302Y-464859428D02*
X119085731Y-464672999D01*
X120675962Y-468077002D02*
X120074038Y-468077002D01*
X118124039Y-470027001D02*
X115099039Y-470027001D01*
X107168810Y-469490810D02*
X103336000Y-465658000D01*
X115099039Y-470027001D02*
X114540038Y-469468000D01*
X108809617Y-469490810D02*
X107168810Y-469490810D01*
X114540038Y-469468000D02*
X108832427Y-469468000D01*
X108832427Y-469468000D02*
X108809617Y-469490810D01*
X103336000Y-465658000D02*
X97858000Y-465658000D01*
X97858000Y-465658000D02*
X94192000Y-461992000D01*
X107179278Y-390818375D02*
X106129278Y-390818375D01*
X111435055Y-442349740D02*
X112643099Y-441141699D01*
X120625000Y-472200000D02*
X123620978Y-469204022D01*
X123620978Y-458646127D02*
X111435055Y-446460204D01*
X111435055Y-431872892D02*
X111435055Y-419602903D01*
X111435055Y-419602903D02*
X110050000Y-418217848D01*
X112643099Y-441141699D02*
X112643099Y-433080936D01*
X110050000Y-393689097D02*
X107179278Y-390818375D01*
X123620978Y-469204022D02*
X123620978Y-458646127D01*
X112643099Y-433080936D02*
X111435055Y-431872892D01*
X111435055Y-446460204D02*
X111435055Y-442349740D01*
X110050000Y-418217848D02*
X110050000Y-393689097D01*
X105064870Y-392293967D02*
X103589278Y-390818375D01*
X106531507Y-392293967D02*
X105064870Y-392293967D01*
X111108044Y-446595656D02*
X111108044Y-442214290D01*
X123293967Y-468506049D02*
X123293967Y-458781579D01*
X120625008Y-471175008D02*
X123293967Y-468506049D01*
X109722989Y-395485449D02*
X106531507Y-392293967D01*
X109722989Y-418353300D02*
X109722989Y-395485449D01*
X111108044Y-419738355D02*
X109722989Y-418353300D01*
X111108044Y-432008344D02*
X111108044Y-419738355D01*
X112316087Y-433216382D02*
X111108044Y-432008344D01*
X112316088Y-441006247D02*
X112316087Y-433216382D01*
X111108044Y-442214290D02*
X112316088Y-441006247D01*
X123293967Y-458781579D02*
X111108044Y-446595656D01*
X106396055Y-392620978D02*
X109395978Y-395620901D01*
X109395978Y-395620901D02*
X109395978Y-418488752D01*
X110781033Y-432143796D02*
X111989077Y-433351836D01*
X122966956Y-458917031D02*
X122966956Y-467920425D01*
X121274005Y-469613376D02*
X120708320Y-469613376D01*
X110781033Y-442078839D02*
X110781033Y-446731108D01*
X122966956Y-467920425D02*
X121274005Y-469613376D01*
X110781033Y-446731108D02*
X122966956Y-458917031D01*
X111989077Y-440870795D02*
X110781033Y-442078839D01*
X111989077Y-433351836D02*
X111989077Y-440870795D01*
X110781033Y-419873807D02*
X110781033Y-432143796D01*
X109395978Y-418488752D02*
X110781033Y-419873807D01*
X102851881Y-392620978D02*
X106396055Y-392620978D01*
X101049278Y-390818375D02*
X102851881Y-392620978D01*
X98509278Y-390818375D02*
X100638892Y-392947989D01*
X109068967Y-395756353D02*
X109068967Y-418624204D01*
X109068967Y-418624204D02*
X110454022Y-420009259D01*
X111662066Y-433487288D02*
X111662066Y-440735343D01*
X106260603Y-392947989D02*
X109068967Y-395756353D01*
X100638892Y-392947989D02*
X106260603Y-392947989D01*
X122639945Y-466853543D02*
X120802344Y-468691144D01*
X111662066Y-440735343D02*
X110454022Y-441943387D01*
X122639945Y-459052483D02*
X122639945Y-466853543D01*
X110454022Y-441943387D02*
X110454022Y-446866560D01*
X110454022Y-446866560D02*
X122639945Y-459052483D01*
X110454022Y-432279247D02*
X111662066Y-433487288D01*
X110454022Y-420009259D02*
X110454022Y-432279247D01*
X102700000Y-376900000D02*
X104532790Y-376900000D01*
X98750000Y-380850000D02*
X102700000Y-376900000D01*
X110127011Y-447002011D02*
X110127011Y-441807934D01*
X110127011Y-441807934D02*
X111335055Y-440599891D01*
X122079011Y-458954011D02*
X110127011Y-447002011D01*
X106075000Y-393275000D02*
X98525000Y-393275000D01*
X121679012Y-465173740D02*
X122079011Y-464773741D01*
X108741956Y-395941956D02*
X106075000Y-393275000D01*
X122079011Y-464773741D02*
X122079011Y-458954011D01*
X110127011Y-432414698D02*
X110127011Y-420144711D01*
X97432277Y-383967723D02*
X98750000Y-382650000D01*
X111335055Y-433622740D02*
X110127011Y-432414698D01*
X110127011Y-420144711D02*
X108741956Y-418759656D01*
X108741956Y-418759656D02*
X108741956Y-395941956D01*
X97432277Y-392182277D02*
X97432277Y-383967723D01*
X111335055Y-440599891D02*
X111335055Y-433622740D01*
X98525000Y-393275000D02*
X97432277Y-392182277D01*
X98750000Y-382650000D02*
X98750000Y-380850000D01*
X128400000Y-381244400D02*
X128876095Y-380768305D01*
X128400000Y-419312461D02*
X128400000Y-381244400D01*
X126550000Y-421162461D02*
X128400000Y-419312461D01*
X126550000Y-431587460D02*
X126550000Y-421162461D01*
X127391956Y-432429416D02*
X126550000Y-431587460D01*
X124300000Y-470398001D02*
X124300000Y-458400223D01*
X128876095Y-380768305D02*
X128876095Y-379718305D01*
X124776999Y-470875000D02*
X124300000Y-470398001D01*
X124300000Y-458400223D02*
X118400000Y-452500223D01*
X118400000Y-452500223D02*
X118400000Y-448547038D01*
X118400000Y-448547038D02*
X127391956Y-439555082D01*
X127391956Y-439555082D02*
X127391956Y-432429416D01*
M02*
